<?xml version="1.0" encoding="UTF-8" standalone="no"?><!DOCTYPE svg PUBLIC "-//W3C//DTD SVG 1.1//EN" "http://www.w3.org/Graphics/SVG/1.1/DTD/svg11.dtd"><svg width="100%" height="100%" viewBox="0 0 199 100" version="1.1" xmlns="http://www.w3.org/2000/svg" xmlns:xlink="http://www.w3.org/1999/xlink" xml:space="preserve" style="fill-rule:evenodd;clip-rule:evenodd;stroke-linecap:round;stroke-linejoin:round;stroke-miterlimit:1.5;"><g><path d="M16.334,23.319l8.056,9.243" style="fill:none;stroke:#000;stroke-width:1.5px;"/><path d="M24.39,83.379l0,-50.817" style="fill:none;stroke:#000;stroke-width:1.5px;"/><path d="M11.457,70.136l26.053,0" style="fill:none;stroke:#000;stroke-width:1.5px;"/><path d="M11.457,49.358l26.24,0" style="fill:none;stroke:#000;stroke-width:1.5px;"/><circle cx="24.39" cy="49.596" r="4.252" style="fill:#424242;stroke:#000;stroke-width:0.24px;"/><path d="M21.597,29.357c1.769,-1.542 4.457,-1.358 5.999,0.411c1.542,1.769 1.358,4.457 -0.411,5.999c-1.769,1.542 -4.457,1.358 -5.999,-0.411c-1.542,-1.769 -1.358,-4.457 0.411,-5.999Z" style="fill:#ff2600;stroke:#000;stroke-width:0.24px;"/><path d="M14.937,21.717c0.884,-0.771 2.228,-0.679 2.999,0.205c0.771,0.885 0.679,2.229 -0.205,3c-0.885,0.771 -2.229,0.679 -3,-0.206c-0.771,-0.884 -0.679,-2.228 0.206,-2.999Z" style="fill:#ebebeb;stroke:#000;stroke-width:0.24px;"/><circle cx="37.697" cy="49.596" r="2.126" style="fill:#ebebeb;stroke:#000;stroke-width:0.24px;"/><circle cx="10.926" cy="49.596" r="2.126" style="fill:#ebebeb;stroke:#000;stroke-width:0.24px;"/><circle cx="10.926" cy="49.596" r="2.126" style="fill:#ebebeb;stroke:#000;stroke-width:0.24px;"/><circle cx="24.39" cy="70.136" r="4.252" style="fill:#424242;stroke:#000;stroke-width:0.24px;"/><circle cx="37.697" cy="70.136" r="2.126" style="fill:#ebebeb;stroke:#000;stroke-width:0.24px;"/><circle cx="10.926" cy="70.136" r="2.126" style="fill:#ebebeb;stroke:#000;stroke-width:0.24px;"/><circle cx="10.926" cy="70.136" r="2.126" style="fill:#ebebeb;stroke:#000;stroke-width:0.24px;"/><circle cx="24.39" cy="83.379" r="2.126" style="fill:#ebebeb;stroke:#000;stroke-width:0.24px;"/></g><path d="M47.014,63.218l0,-5.194l29.631,0l-4.037,-7.792l19.298,10.389l-19.298,10.389l4.037,-7.792l-29.631,0Z" style="fill:#4a6491;"/><path d="M124.001,63.218l0,-5.194l29.63,0l-4.036,-7.792l19.298,10.389l-19.298,10.389l4.036,-7.792l-29.63,0Z" style="fill:#4a6491;"/><path d="M101.613,14.302l9.751,0" style="fill:none;stroke:#000;stroke-width:0.4px;stroke-linejoin:miter;"/><path d="M111.364,93.849l0,-87.233" style="fill:none;stroke:#000;stroke-width:0.4px;stroke-linejoin:miter;"/><path d="M111.364,6.616l-9.751,0" style="fill:none;stroke:#000;stroke-width:0.4px;stroke-linejoin:miter;"/><path d="M101.613,21.988l9.751,0" style="fill:none;stroke:#000;stroke-width:0.4px;stroke-linejoin:miter;"/><path d="M101.613,29.673l9.751,0" style="fill:none;stroke:#000;stroke-width:0.4px;stroke-linejoin:miter;"/><path d="M101.613,37.359l9.751,0" style="fill:none;stroke:#000;stroke-width:0.4px;stroke-linejoin:miter;"/><path d="M101.613,45.045l9.751,0" style="fill:none;stroke:#000;stroke-width:0.4px;stroke-linejoin:miter;"/><path d="M101.613,52.731l9.751,0" style="fill:none;stroke:#000;stroke-width:0.4px;stroke-linejoin:miter;"/><path d="M101.613,60.417l9.751,0" style="fill:none;stroke:#000;stroke-width:0.4px;stroke-linejoin:miter;"/><path d="M101.613,68.103l9.751,0" style="fill:none;stroke:#000;stroke-width:0.4px;stroke-linejoin:miter;"/><path d="M101.613,75.789l9.751,0" style="fill:none;stroke:#000;stroke-width:0.4px;stroke-linejoin:miter;"/><path d="M101.613,83.475l9.751,0" style="fill:none;stroke:#000;stroke-width:0.4px;stroke-linejoin:miter;"/><path d="M101.613,91.161l9.751,0" style="fill:none;stroke:#000;stroke-width:0.4px;stroke-linejoin:miter;"/><path d="M111.364,83.475l-9.751,0" style="fill:none;stroke:#000;stroke-width:0.4px;stroke-linejoin:miter;"/><path d="M101.613,91.161l9.751,0" style="fill:none;stroke:#000;stroke-width:0.4px;stroke-linejoin:miter;"/><path d="M101.613,6.616l0,87.233" style="fill:none;stroke:#000;stroke-width:0.4px;stroke-linejoin:miter;"/><g><path d="M179.874,55.807l9.752,0" style="fill:none;stroke:#000;stroke-width:0.4px;stroke-linejoin:miter;"/><path d="M189.626,71.179l0,-23.058" style="fill:none;stroke:#000;stroke-width:0.4px;stroke-linejoin:miter;"/><path d="M189.626,48.121l-9.752,0" style="fill:none;stroke:#000;stroke-width:0.4px;stroke-linejoin:miter;"/><path d="M179.874,63.493l9.752,0" style="fill:none;stroke:#000;stroke-width:0.4px;stroke-linejoin:miter;"/><path d="M179.874,71.179l9.752,0" style="fill:none;stroke:#000;stroke-width:0.4px;stroke-linejoin:miter;"/><path d="M179.874,48.121l0,23.058" style="fill:none;stroke:#000;stroke-width:0.4px;stroke-linejoin:miter;"/></g><g transform="matrix(0.24,0,0,0.24,49.3545,-58.8709)"><text x="32.858px" y="394.565px" style="font-family:'Helvetica';font-size:25px;">Compute</text><text x="28.82px" y="419.565px" style="font-family:'Helvetica';font-size:25px;">d</text><text x="42.474px" y="419.565px" style="font-family:'Helvetica';font-size:25px;">escriptor</text></g><g transform="matrix(0.24,0,0,0.24,126.181,-58.9881)"><text x="2.298px" y="394.565px" style="font-family:'Helvetica';font-size:25px;">Dimensionality</text><text x="32.156px" y="419.565px" style="font-family:'Helvetica';font-size:25px;">reduction</text></g><text x="103.475px" y="11.056px" style="font-family:'Helvetica';font-size:3px;">1.24</text><text x="102.976px" y="18.734px" style="font-family:'Helvetica';font-size:3px;">-3.54</text><text x="103.475px" y="26.583px" style="font-family:'Helvetica';font-size:3px;">0.59</text><text x="103.475px" y="34.615px" style="font-family:'Helvetica';font-size:3px;">2.92</text><text x="102.976px" y="41.995px" style="font-family:'Helvetica';font-size:3px;">-0.46</text><text x="103.475px" y="49.606px" style="font-family:'Helvetica';font-size:3px;">1.67</text><text x="104.31px" y="57.059px" style="font-family:'Helvetica';font-size:3px;">0.0</text><text x="102.976px" y="64.87px" style="font-family:'Helvetica';font-size:3px;">-6.85</text><text x="104.31px" y="72.586px" style="font-family:'Helvetica';font-size:3px;">0.0</text><text x="103.475px" y="80.76px" style="font-family:'Helvetica';font-size:3px;">0.37</text><text x="105.145px" y="88.1px" style="font-family:'Helvetica';font-size:3px;">...</text><text x="181.933px" y="52.714px" style="font-family:'Helvetica';font-size:3px;">0.43</text><text x="182.268px" y="60.702px" style="font-family:'Helvetica';font-size:3px;">-2.3</text><text x="181.933px" y="68.189px" style="font-family:'Helvetica';font-size:3px;">1.78</text></svg>