<?xml version="1.0" encoding="utf-8"?>
<!-- Generator: Adobe Illustrator 24.1.2, SVG Export Plug-In . SVG Version: 6.00 Build 0)  -->
<svg version="1.1" id="Layer_2_1_" xmlns="http://www.w3.org/2000/svg" xmlns:xlink="http://www.w3.org/1999/xlink" x="0px" y="0px"
	 viewBox="0 0 16 16" style="enable-background:new 0 0 16 16;" xml:space="preserve">
<style type="text/css">
	.st0{clip-path:url(#SVGID_2_);}
	.st1{fill:#666666;}
</style>
<g>
	<defs>
		<rect id="SVGID_1_" x="2.5" y="2.5" width="11" height="11"/>
	</defs>
	<clipPath id="SVGID_2_">
		<use xlink:href="#SVGID_1_"  style="overflow:visible;"/>
	</clipPath>
	<g class="st0">
		<g id="XMLID_1_">
			<g>
				<polygon class="st1" points="14.8,2.9 14.3,3.4 14.3,2.4 				"/>
				<polygon class="st1" points="14.3,12.7 14.6,13.1 14.3,13.5 				"/>
				<polygon class="st1" points="14.3,12.7 14.3,13.5 13.5,14.3 12.5,14.3 8,9.7 3.3,14.3 2.5,14.3 1.7,13.5 1.7,12.5 6.3,8 
					1.7,3.4 1.7,2.4 2.4,1.7 3.4,1.7 8,6.3 12.6,1.7 13.6,1.7 14.3,2.4 14.3,3.4 9.7,8 				"/>
				<polygon class="st1" points="13.6,1.7 12.6,1.7 13.1,1.2 				"/>
				<polygon class="st1" points="13.5,14.3 13,14.8 12.5,14.3 				"/>
				<polygon class="st1" points="3.4,1.7 2.4,1.7 2.9,1.2 				"/>
				<polygon class="st1" points="3.3,14.3 2.9,14.6 2.5,14.3 				"/>
				<polygon class="st1" points="1.7,12.5 1.7,13.5 1.2,13 				"/>
				<polygon class="st1" points="1.7,2.4 1.7,3.4 1.2,2.9 				"/>
			</g>
			<g>
			</g>
		</g>
	</g>
</g>
</svg>
