<?xml version="1.0" encoding="iso-8859-1"?>
<!-- Generator: Adobe Illustrator 16.0.0, SVG Export Plug-In . SVG Version: 6.00 Build 0)  -->
<!DOCTYPE svg PUBLIC "-//W3C//DTD SVG 1.1//EN" "http://www.w3.org/Graphics/SVG/1.1/DTD/svg11.dtd">
<svg version="1.1" id="Capa_1" xmlns="http://www.w3.org/2000/svg" xmlns:xlink="http://www.w3.org/1999/xlink" x="0px" y="0px"
	 width="550.801px" height="550.801px" viewBox="0 0 550.801 550.801" style="enable-background:new 0 0 550.801 550.801;"
	 xml:space="preserve">
<g>
	<path id="foo" d="M146.747,276.708c0-13.998-9.711-22.352-26.887-22.352c-6.99,0-11.726,0.675-14.204,1.355v44.927
		c2.932,0.676,6.539,0.896,11.52,0.896C135.449,301.546,146.747,292.28,146.747,276.708z 
		M488.426,197.019H475.2v-63.816c0-0.398-0.063-0.799-0.116-1.202c-0.021-2.534-0.827-5.023-2.562-6.995L366.325,3.694
		c-0.032-0.031-0.063-0.042-0.085-0.076c-0.633-0.707-1.371-1.295-2.151-1.804c-0.231-0.155-0.464-0.285-0.706-0.419
		c-0.676-0.369-1.393-0.675-2.131-0.896c-0.2-0.056-0.38-0.138-0.58-0.19C359.87,0.119,359.037,0,358.193,0H97.2
		c-11.918,0-21.6,9.693-21.6,21.601v175.413H62.377c-17.049,0-30.873,13.818-30.873,30.873v160.545
		c0,17.043,13.824,30.87,30.873,30.87h13.224V529.2c0,11.907,9.682,21.601,21.6,21.601h356.4c11.907,0,21.6-9.693,21.6-21.601
		V419.302h13.226c17.044,0,30.871-13.827,30.871-30.87v-160.54C519.297,210.838,505.47,197.019,488.426,197.019z M97.2,21.605
		h250.193v110.513c0,5.967,4.841,10.8,10.8,10.8h95.407v54.108H97.2V21.605z M234.344,335.86v45.831h-31.601V229.524h40.184
		l31.611,55.759c9.025,16.031,18.064,34.983,24.825,52.154h0.675c-2.257-20.103-2.933-40.643-2.933-63.44v-44.473h31.614v152.167
		h-36.117l-32.516-58.703c-9.049-16.253-18.971-35.892-26.438-53.727l-0.665,0.222C233.906,289.58,234.344,311.027,234.344,335.86z
		 M71.556,381.691V231.56c10.613-1.804,25.516-3.159,46.506-3.159c21.215,0,36.353,4.061,46.509,12.192
		c9.698,7.673,16.255,20.313,16.255,35.219c0,14.897-4.959,27.549-13.999,36.123c-11.738,11.063-29.123,16.031-49.441,16.031
		c-4.522,0-8.593-0.231-11.736-0.675v54.411H71.556V381.691z M453.601,523.353H97.2V419.302h356.4V523.353z M485.652,374.688
		c-10.61,3.607-30.713,8.585-50.805,8.585c-27.759,0-47.872-7.003-61.857-20.545c-13.995-13.1-21.684-32.97-21.452-55.318
		c0.222-50.569,37.03-79.463,86.917-79.463c19.644,0,34.783,3.829,42.219,7.446l-7.214,27.543c-8.369-3.617-18.752-6.55-35.458-6.55
		c-28.656,0-50.341,16.256-50.341,49.22c0,31.382,19.649,49.892,47.872,49.892c7.895,0,14.218-0.901,16.934-2.257v-31.835h-23.493
		v-26.869h56.679V374.688z"/>
</g>
</svg>
