<?xml version="1.0" encoding="iso-8859-1"?>
<!-- Generator: Adobe Illustrator 16.0.0, SVG Export Plug-In . SVG Version: 6.00 Build 0)  -->
<!DOCTYPE svg PUBLIC "-//W3C//DTD SVG 1.1//EN" "http://www.w3.org/Graphics/SVG/1.1/DTD/svg11.dtd">
<svg version="1.1" id="Capa_1" xmlns="http://www.w3.org/2000/svg" xmlns:xlink="http://www.w3.org/1999/xlink" x="0px" y="0px"
	 width="550.801px" height="550.801px" viewBox="0 0 550.801 550.801" style="enable-background:new 0 0 550.801 550.801;"
	 xml:space="preserve">
<g>
	<path d="M488.426,197.019H475.2v-63.816c0-0.398-0.063-0.799-0.116-1.202c-0.021-2.534-0.827-5.023-2.562-6.995L366.325,3.694
		c-0.032-0.031-0.063-0.042-0.085-0.076c-0.633-0.707-1.371-1.295-2.151-1.804c-0.231-0.155-0.464-0.285-0.706-0.419
		c-0.676-0.369-1.393-0.675-2.131-0.896c-0.2-0.056-0.38-0.138-0.58-0.19C359.87,0.119,359.037,0,358.193,0H97.2
		c-11.918,0-21.6,9.693-21.6,21.601v175.413H62.377c-17.049,0-30.873,13.818-30.873,30.873v160.545
		c0,17.043,13.824,30.87,30.873,30.87h13.224V529.2c0,11.907,9.682,21.601,21.6,21.601h356.4c11.907,0,21.6-9.693,21.6-21.601
		V419.302h13.226c17.044,0,30.871-13.827,30.871-30.87v-160.54C519.297,210.838,505.47,197.019,488.426,197.019z M97.2,21.605
		h250.193v110.513c0,5.967,4.841,10.8,10.8,10.8h95.407v54.108H97.2V21.605z M338.871,225.672L284.545,386.96h-42.591
		l-51.69-161.288h39.967l19.617,68.196c5.508,19.143,10.531,37.567,14.36,57.67h0.717c4.061-19.385,9.089-38.527,14.592-56.953
		l20.585-68.918h38.77V225.672z M68.458,379.54l7.415-30.153c9.811,5.021,24.888,10.051,40.439,10.051
		c16.751,0,25.607-6.935,25.607-17.465c0-10.052-7.662-15.795-27.05-22.734c-26.8-9.328-44.263-24.168-44.263-47.611
		c0-27.524,22.971-48.579,61.014-48.579c18.188,0,31.591,3.823,41.159,8.131l-8.126,29.437c-6.465-3.116-17.945-7.657-33.745-7.657
		c-15.791,0-23.454,7.183-23.454,15.552c0,10.296,9.089,14.842,29.917,22.731c28.468,10.536,41.871,25.365,41.871,48.094
		c0,27.042-20.812,50.013-65.09,50.013C95.731,389.349,77.538,384.571,68.458,379.54z M453.601,523.353H97.2V419.302h356.4V523.353z
		 M488.911,379.54c-11.243,3.823-32.537,9.103-53.831,9.103c-29.437,0-50.73-7.426-65.57-21.779
		c-14.839-13.875-22.971-34.942-22.738-58.625c0.253-53.604,39.255-84.235,92.137-84.235c20.81,0,36.852,4.073,44.74,7.896
		l-7.657,29.202c-8.859-3.829-19.849-6.95-37.567-6.95c-30.396,0-53.357,17.233-53.357,52.173c0,33.265,20.81,52.882,50.73,52.882
		c8.375,0,15.072-0.96,17.94-2.395v-33.745h-24.875v-28.471h60.049V379.54L488.911,379.54z"/>
</g>
<g>
</g>
<g>
</g>
<g>
</g>
<g>
</g>
<g>
</g>
<g>
</g>
<g>
</g>
<g>
</g>
<g>
</g>
<g>
</g>
<g>
</g>
<g>
</g>
<g>
</g>
<g>
</g>
<g>
</g>
</svg>
