<?xml version="1.0" encoding="UTF-8" standalone="no"?>
<!DOCTYPE svg PUBLIC "-//W3C//DTD SVG 1.1//EN" "http://www.w3.org/Graphics/SVG/1.1/DTD/svg11.dtd">
<svg width="100%" height="100%" viewBox="0 0 145 163" version="1.1" xmlns="http://www.w3.org/2000/svg" xmlns:xlink="http://www.w3.org/1999/xlink" xml:space="preserve" xmlns:serif="http://www.serif.com/" style="fill-rule:evenodd;clip-rule:evenodd;stroke-linecap:round;">
    <g id="rect1910" transform="matrix(1,0,0,1.01875,-28.1496,-333.566)">
        <rect x="28.15" y="327.426" width="144" height="160" style="fill:rgb(49,61,78);"/>
    </g>
    <g id="rect17" transform="matrix(1,0,0,1,-28.1496,-327.426)">
        <rect x="36.15" y="335.426" width="128" height="128" style="fill:white;"/>
    </g>
    <g id="text17" transform="matrix(1,0,0,1,-28.1496,-324.426)">
        <path d="M38.697,480.173C37.849,480.173 37.09,480 36.421,479.653C35.764,479.307 35.244,478.769 34.862,478.041C34.492,477.312 34.307,476.38 34.307,475.245C34.307,474.063 34.504,473.101 34.898,472.36C35.292,471.62 35.824,471.076 36.493,470.73C37.174,470.383 37.944,470.21 38.804,470.21C39.294,470.21 39.766,470.264 40.22,470.371C40.674,470.467 41.044,470.586 41.331,470.73L40.847,472.038C40.56,471.93 40.226,471.829 39.844,471.733C39.461,471.638 39.103,471.59 38.768,471.59C36.881,471.59 35.937,472.802 35.937,475.227C35.937,476.386 36.164,477.276 36.618,477.897C37.084,478.507 37.771,478.811 38.679,478.811C39.204,478.811 39.664,478.757 40.059,478.65C40.465,478.542 40.835,478.411 41.17,478.256L41.17,479.653C40.847,479.821 40.489,479.946 40.094,480.03C39.712,480.125 39.246,480.173 38.697,480.173L38.697,480.173ZM45.022,470.371C45.022,470.849 44.992,471.297 44.933,471.715L45.04,471.715C45.351,471.225 45.769,470.855 46.294,470.604C46.832,470.353 47.411,470.228 48.032,470.228C49.203,470.228 50.081,470.508 50.667,471.07C51.252,471.619 51.545,472.509 51.545,473.74L51.545,479.994L49.986,479.994L49.986,473.847C49.986,472.306 49.269,471.536 47.835,471.536C46.76,471.536 46.02,471.84 45.613,472.45C45.219,473.047 45.022,473.907 45.022,475.03L45.022,479.994L43.445,479.994L43.445,466.375L45.022,466.375L45.022,470.371ZM58.228,470.21C59.053,470.21 59.757,470.389 60.343,470.747C60.94,471.106 61.394,471.614 61.705,472.271C62.027,472.916 62.188,473.674 62.188,474.546L62.188,475.496L55.612,475.496C55.636,476.583 55.911,477.413 56.436,477.987C56.974,478.548 57.721,478.829 58.676,478.829C59.286,478.829 59.823,478.775 60.289,478.667C60.767,478.548 61.257,478.381 61.758,478.166L61.758,479.546C61.269,479.76 60.785,479.916 60.307,480.011C59.829,480.119 59.262,480.173 58.605,480.173C57.697,480.173 56.89,479.988 56.186,479.617C55.493,479.247 54.949,478.697 54.555,477.969C54.173,477.228 53.982,476.326 53.982,475.263C53.982,474.212 54.155,473.31 54.501,472.557C54.86,471.805 55.355,471.225 55.988,470.819C56.634,470.413 57.38,470.21 58.228,470.21ZM58.211,471.5C57.458,471.5 56.861,471.745 56.419,472.235C55.989,472.713 55.732,473.382 55.648,474.242L60.54,474.242C60.528,473.429 60.337,472.772 59.967,472.271C59.596,471.757 59.011,471.5 58.211,471.5ZM75.162,470.21C76.249,470.21 77.061,470.491 77.599,471.052C78.136,471.602 78.405,472.498 78.405,473.74L78.405,479.994L76.846,479.994L76.846,473.812C76.846,472.294 76.195,471.536 74.893,471.536C73.961,471.536 73.292,471.805 72.886,472.342C72.492,472.88 72.295,473.662 72.295,474.69L72.295,479.994L70.736,479.994L70.736,473.812C70.736,472.294 70.079,471.536 68.765,471.536C67.797,471.536 67.128,471.835 66.758,472.432C66.388,473.029 66.202,473.889 66.202,475.012L66.202,479.994L64.626,479.994L64.626,470.389L65.898,470.389L66.131,471.697L66.22,471.697C66.519,471.195 66.919,470.825 67.421,470.586C67.935,470.335 68.478,470.21 69.051,470.21C70.557,470.21 71.536,470.747 71.99,471.822L72.08,471.822C72.402,471.273 72.838,470.867 73.388,470.604C73.949,470.341 74.541,470.21 75.162,470.21L75.162,470.21ZM82.186,466.787C82.425,466.787 82.634,466.871 82.813,467.038C83.004,467.194 83.1,467.444 83.1,467.791C83.1,468.125 83.004,468.376 82.813,468.544C82.634,468.711 82.425,468.794 82.186,468.794C81.923,468.794 81.702,468.711 81.523,468.544C81.344,468.376 81.254,468.125 81.254,467.791C81.254,467.445 81.344,467.194 81.523,467.038C81.702,466.871 81.923,466.787 82.186,466.787ZM82.957,470.389L82.957,479.994L81.38,479.994L81.38,470.389L82.957,470.389ZM92.256,477.342C92.256,478.273 91.91,478.978 91.217,479.456C90.524,479.934 89.592,480.173 88.422,480.173C87.753,480.173 87.173,480.119 86.684,480.011C86.206,479.904 85.782,479.754 85.411,479.563L85.411,478.13C85.794,478.321 86.254,478.5 86.791,478.667C87.341,478.823 87.896,478.9 88.458,478.9C89.258,478.9 89.837,478.775 90.196,478.524C90.554,478.261 90.733,477.915 90.733,477.485C90.733,477.246 90.668,477.031 90.536,476.839C90.405,476.648 90.166,476.457 89.819,476.266C89.485,476.075 89.001,475.86 88.368,475.621C87.747,475.382 87.215,475.143 86.773,474.904C86.331,474.665 85.991,474.379 85.752,474.044C85.513,473.71 85.394,473.28 85.394,472.754C85.394,471.942 85.722,471.315 86.379,470.873C87.048,470.431 87.92,470.21 88.995,470.21C89.581,470.21 90.124,470.269 90.626,470.389C91.139,470.496 91.617,470.652 92.059,470.855L91.522,472.109C91.116,471.942 90.692,471.798 90.25,471.679C89.808,471.559 89.354,471.5 88.888,471.5C88.243,471.5 87.747,471.607 87.4,471.822C87.066,472.025 86.899,472.306 86.899,472.664C86.899,472.927 86.976,473.154 87.132,473.345C87.287,473.524 87.544,473.703 87.902,473.883C88.272,474.05 88.762,474.253 89.371,474.492C89.981,474.719 90.5,474.952 90.93,475.191C91.36,475.43 91.689,475.722 91.916,476.069C92.143,476.403 92.256,476.827 92.256,477.341L92.256,477.342ZM98.438,480.173C97.59,480.173 96.832,480 96.163,479.653C95.506,479.307 94.986,478.769 94.604,478.04C94.233,477.312 94.048,476.38 94.048,475.245C94.048,474.062 94.245,473.101 94.64,472.36C95.034,471.619 95.565,471.076 96.234,470.73C96.915,470.383 97.686,470.21 98.546,470.21C99.036,470.21 99.508,470.264 99.962,470.371C100.416,470.467 100.786,470.586 101.073,470.73L100.589,472.038C100.302,471.93 99.968,471.828 99.585,471.733C99.203,471.637 98.845,471.59 98.51,471.59C96.623,471.59 95.679,472.802 95.679,475.227C95.679,476.386 95.906,477.276 96.36,477.897C96.826,478.506 97.513,478.811 98.421,478.811C98.946,478.811 99.406,478.757 99.8,478.65C100.206,478.542 100.577,478.411 100.911,478.255L100.911,479.653C100.589,479.82 100.23,479.946 99.836,480.03C99.454,480.125 98.988,480.173 98.438,480.173L98.438,480.173ZM111.537,475.173C111.537,476.762 111.131,477.993 110.319,478.865C109.518,479.737 108.431,480.173 107.057,480.173C106.209,480.173 105.451,479.982 104.782,479.599C104.125,479.205 103.605,478.638 103.223,477.897C102.841,477.144 102.649,476.237 102.649,475.173C102.649,473.585 103.05,472.36 103.85,471.5C104.65,470.64 105.737,470.21 107.111,470.21C107.983,470.21 108.748,470.407 109.405,470.801C110.074,471.183 110.593,471.745 110.964,472.486C111.346,473.214 111.537,474.11 111.537,475.173ZM104.28,475.173C104.28,476.308 104.501,477.21 104.943,477.879C105.397,478.536 106.114,478.865 107.093,478.865C108.061,478.865 108.772,478.536 109.226,477.879C109.68,477.21 109.907,476.308 109.907,475.173C109.907,474.039 109.68,473.149 109.226,472.503C108.772,471.858 108.055,471.536 107.075,471.536C106.096,471.536 105.385,471.858 104.943,472.503C104.501,473.149 104.28,474.039 104.28,475.173ZM118.597,470.21C119.78,470.21 120.73,470.622 121.446,471.446C122.175,472.271 122.539,473.513 122.539,475.173C122.539,476.81 122.175,478.052 121.446,478.901C120.73,479.749 119.774,480.173 118.579,480.173C117.839,480.173 117.223,480.035 116.734,479.761C116.256,479.474 115.879,479.145 115.605,478.775L115.497,478.775C115.521,478.978 115.545,479.235 115.569,479.546C115.593,479.856 115.605,480.125 115.605,480.352L115.605,484.294L114.028,484.294L114.028,470.389L115.318,470.389L115.533,471.697L115.605,471.697C115.891,471.279 116.268,470.927 116.734,470.64C117.2,470.353 117.821,470.21 118.597,470.21L118.597,470.21ZM118.31,471.536C117.331,471.536 116.638,471.811 116.232,472.36C115.838,472.91 115.629,473.746 115.605,474.869L115.605,475.173C115.605,476.356 115.796,477.27 116.178,477.915C116.572,478.548 117.295,478.865 118.346,478.865C118.932,478.865 119.409,478.703 119.78,478.381C120.162,478.058 120.443,477.622 120.622,477.073C120.813,476.511 120.909,475.872 120.909,475.156C120.909,474.056 120.694,473.178 120.264,472.521C119.846,471.864 119.194,471.536 118.31,471.536L118.31,471.536ZM128.757,470.21C129.581,470.21 130.286,470.389 130.872,470.747C131.469,471.106 131.923,471.614 132.233,472.271C132.556,472.916 132.717,473.674 132.717,474.546L132.717,475.496L126.141,475.496C126.165,476.583 126.44,477.413 126.965,477.987C127.503,478.548 128.249,478.829 129.205,478.829C129.814,478.829 130.352,478.775 130.818,478.667C131.296,478.548 131.785,478.381 132.287,478.166L132.287,479.546C131.797,479.76 131.314,479.916 130.836,480.011C130.358,480.119 129.791,480.173 129.133,480.173C128.226,480.173 127.419,479.988 126.714,479.617C126.022,479.247 125.478,478.697 125.084,477.969C124.702,477.228 124.51,476.326 124.51,475.263C124.51,474.212 124.684,473.31 125.03,472.557C125.388,471.805 125.884,471.225 126.517,470.819C127.162,470.413 127.909,470.21 128.757,470.21ZM128.739,471.5C127.987,471.5 127.39,471.745 126.948,472.235C126.517,472.713 126.261,473.382 126.177,474.242L131.069,474.242C131.057,473.429 130.866,472.772 130.495,472.271C130.125,471.757 129.54,471.5 128.739,471.5ZM134.921,479.026C134.921,478.584 135.029,478.273 135.244,478.094C135.459,477.915 135.716,477.825 136.014,477.825C136.325,477.825 136.588,477.915 136.803,478.094C137.03,478.273 137.143,478.584 137.143,479.026C137.143,479.456 137.03,479.767 136.803,479.958C136.588,480.149 136.325,480.245 136.014,480.245C135.716,480.245 135.459,480.149 135.244,479.958C135.029,479.766 134.921,479.456 134.921,479.026ZM148.307,475.173C148.307,476.762 147.901,477.993 147.088,478.865C146.288,479.737 145.201,480.173 143.827,480.173C142.979,480.173 142.22,479.982 141.551,479.599C140.894,479.205 140.375,478.638 139.992,477.897C139.61,477.144 139.419,476.237 139.419,475.173C139.419,473.585 139.819,472.36 140.62,471.5C141.42,470.64 142.507,470.21 143.881,470.21C144.753,470.21 145.517,470.407 146.174,470.801C146.843,471.183 147.363,471.745 147.733,472.486C148.116,473.214 148.307,474.11 148.307,475.173ZM141.05,475.173C141.05,476.308 141.271,477.21 141.713,477.879C142.167,478.536 142.883,478.865 143.863,478.865C144.831,478.865 145.541,478.536 145.995,477.879C146.449,477.21 146.676,476.308 146.676,475.173C146.676,474.039 146.449,473.149 145.995,472.503C145.541,471.858 144.825,471.536 143.845,471.536C142.865,471.536 142.155,471.858 141.713,472.503C141.271,473.149 141.05,474.039 141.05,475.173ZM155.277,470.21C155.456,470.21 155.648,470.221 155.851,470.244C156.066,470.256 156.251,470.28 156.406,470.316L156.209,471.767C156.054,471.731 155.881,471.701 155.689,471.678C155.51,471.655 155.337,471.644 155.17,471.644C154.68,471.644 154.22,471.781 153.79,472.056C153.36,472.318 153.014,472.695 152.751,473.185C152.5,473.662 152.374,474.224 152.374,474.869L152.374,479.994L150.798,479.994L150.798,470.389L152.088,470.389L152.267,472.145L152.339,472.145C152.649,471.62 153.049,471.166 153.539,470.783C154.029,470.401 154.608,470.21 155.277,470.21L155.277,470.21ZM161.423,470.21C162.057,470.21 162.624,470.329 163.126,470.568C163.639,470.807 164.075,471.171 164.434,471.661L164.523,471.661L164.738,470.389L165.993,470.389L165.993,480.155C165.993,481.529 165.64,482.562 164.936,483.255C164.243,483.948 163.162,484.294 161.692,484.294C160.283,484.294 159.13,484.091 158.234,483.685L158.234,482.233C159.178,482.735 160.36,482.986 161.782,482.986C162.606,482.986 163.251,482.741 163.717,482.251C164.195,481.773 164.434,481.116 164.434,480.28L164.434,479.904C164.434,479.76 164.44,479.557 164.452,479.295C164.463,479.02 164.475,478.829 164.487,478.721L164.416,478.721C163.771,479.689 162.779,480.173 161.441,480.173C160.199,480.173 159.225,479.737 158.52,478.864C157.828,477.992 157.481,476.774 157.481,475.209C157.481,473.68 157.828,472.467 158.52,471.571C159.225,470.664 160.193,470.21 161.423,470.21L161.423,470.21ZM161.638,471.536C160.838,471.536 160.217,471.858 159.775,472.503C159.333,473.137 159.112,474.045 159.112,475.227C159.112,476.41 159.327,477.318 159.757,477.951C160.199,478.572 160.838,478.883 161.674,478.883C162.642,478.883 163.347,478.626 163.789,478.112C164.231,477.586 164.452,476.744 164.452,475.586L164.452,475.209C164.452,473.895 164.225,472.957 163.771,472.396C163.317,471.822 162.606,471.536 161.638,471.536L161.638,471.536Z" style="fill:white;fill-rule:nonzero;"/>
    </g>
    <g id="g17" transform="matrix(1,0,0,1,-28.1496,-327.426)">
        <path id="path5" d="M46.15,460.426L46.15,345.426" style="fill:none;fill-rule:nonzero;stroke:black;stroke-width:3.78px;"/>
        <path id="path6" d="M41.15,455.426L156.15,455.426" style="fill:none;fill-rule:nonzero;stroke:black;stroke-width:3.78px;"/>
    </g>
    <g id="g1" transform="matrix(1,0,0,1,4,8.00001)">
        <circle id="path28907" cx="32" cy="20" r="7.251" style="fill:rgb(255,102,0);stroke:rgb(200,80,0);stroke-width:2.74px;"/>
        <circle id="circle29123" cx="26" cy="48" r="7.251" style="fill:rgb(212,0,0);stroke:rgb(107,0,0);stroke-width:2.74px;"/>
        <circle id="circle29161" cx="111" cy="103" r="7.251" style="fill:rgb(255,212,42);stroke:rgb(173,138,0);stroke-width:2.74px;"/>
        <circle id="circle29181" cx="54" cy="20" r="7.251" style="fill:rgb(113,200,55);stroke:rgb(79,140,38);stroke-width:2.74px;"/>
        <g id="circle29201" transform="matrix(1,0,0,1,-36.1496,-335.426)">
            <circle cx="126.15" cy="435.426" r="7.251" style="fill:rgb(0,102,255);stroke:rgb(0,52,130);stroke-width:2.74px;"/>
        </g>
        <circle id="circle29221" cx="115" cy="80" r="7.251" style="fill:rgb(127,42,255);stroke:rgb(76,0,190);stroke-width:2.74px;"/>
    </g>
    <g id="g2" transform="matrix(0.823653,0,0,0.823653,10.301,25.5872)">
        <g id="path3" transform="matrix(1,0,0,1,-36.1496,-335.426)">
            <path d="M79,443.941C75.429,447.511 66.901,444.772 59.952,437.823C53.003,430.874 50.265,422.347 53.835,418.776L64.94,407.671C61.37,411.241 64.109,419.769 71.058,426.718C78.007,433.667 86.534,436.406 90.105,432.835L79,443.941Z" style="fill:rgb(49,61,78);fill-rule:nonzero;stroke:rgb(201,210,221);stroke-width:5.67px;stroke-linejoin:round;"/>
        </g>
        <g id="path14" transform="matrix(1,0,0,1,-36.1496,-335.426)">
            <path d="M79,443.941C75.429,447.511 66.901,444.772 59.952,437.823C73.431,444.043 82.286,439.631 90.105,432.835L79,443.941Z" style="fill:rgb(35,44,56);fill-rule:nonzero;"/>
        </g>
        <g id="path2" transform="matrix(1,0,0,1,-36.1496,-335.426)">
            <path d="M97.682,435.897C92.886,440.693 81.43,437.014 72.096,427.679C62.762,418.345 59.083,406.89 63.879,402.094L78.796,387.177C74,391.973 77.679,403.428 87.013,412.762C96.348,422.097 107.803,425.776 112.599,420.979L97.682,435.897Z" style="fill:rgb(49,61,78);fill-rule:nonzero;stroke:rgb(201,210,221);stroke-width:5.67px;stroke-linejoin:round;"/>
        </g>
        <g id="path11" transform="matrix(1,0,0,1,-36.1496,-335.426)">
            <path d="M96.15,455.426L101.15,430.426" style="fill:none;fill-rule:nonzero;stroke:rgb(51,51,51);stroke-width:7.56px;"/>
        </g>
        <g id="path13" transform="matrix(1,0,0,1,-36.1496,-335.426)">
            <path d="M97.682,435.897C92.886,440.693 81.43,437.014 72.096,427.679C92.817,431.669 102.391,426.051 112.599,420.979L97.682,435.897Z" style="fill:rgb(35,44,56);fill-rule:nonzero;"/>
        </g>
        <g id="path9" transform="matrix(1,0,0,1,-36.1496,-335.426)">
            <path d="M81.15,460.426L93.761,432.582" style="fill:none;fill-rule:nonzero;stroke:rgb(77,77,77);stroke-width:7.56px;"/>
        </g>
        <g id="path10" transform="matrix(1,0,0,1,-36.1496,-335.426)">
            <path d="M121.15,460.426L108.538,432.582" style="fill:none;fill-rule:nonzero;stroke:rgb(77,77,77);stroke-width:7.56px;"/>
        </g>
        <g id="rect10" transform="matrix(1,0,0,1,-36.1496,-335.426)">
            <path d="M93.761,428.271C98.542,430.992 103.451,431.295 108.538,428.271L108.538,432.582L93.761,432.582L93.761,428.271Z" style="fill:rgb(77,77,77);fill-rule:nonzero;stroke:rgb(77,77,77);stroke-width:6.03px;stroke-linejoin:round;"/>
        </g>
        <g id="ellipse1" transform="matrix(1,0,0,1,-36.1496,-335.426)">
            <path d="M121.258,423.838C114.827,430.269 99.469,425.336 86.954,412.821C74.439,400.306 69.507,384.948 75.937,378.518L95.937,358.518C89.507,364.948 94.439,380.306 106.954,392.821C119.469,405.336 134.827,410.269 141.258,403.838L121.258,423.838Z" style="fill:rgb(49,61,78);fill-rule:nonzero;stroke:rgb(201,210,221);stroke-width:5.67px;stroke-linejoin:round;"/>
        </g>
        <g id="path12" transform="matrix(1,0,0,1,-36.1496,-335.426)">
            <path d="M121.258,423.838C114.827,430.269 99.469,425.336 86.954,412.821C99.311,420.165 116.009,416.403 141.258,403.838L121.258,423.838Z" style="fill:rgb(35,44,56);fill-rule:nonzero;"/>
        </g>
        <g id="ellipse2" transform="matrix(0.707107,-0.707107,0.707107,0.707107,-36.1496,-335.426)">
            <ellipse cx="-184.843" cy="353.395" rx="16.466" ry="32.046" style="fill:rgb(135,170,222);stroke:rgb(102,102,102);stroke-width:7.56px;stroke-linejoin:round;"/>
        </g>
        <g id="ellipse3" transform="matrix(0.707107,-0.707107,0.707107,0.707107,-36.1496,-335.426)">
            <path d="M-200.035,359.072C-201.184,347.421 -198.692,335.489 -193.693,328.702C-188.693,321.915 -182.079,321.486 -176.858,327.611C-171.637,333.735 -168.743,345.318 -169.492,357.092" style="fill:none;fill-rule:nonzero;stroke:rgb(95,141,211);stroke-width:3.78px;stroke-linejoin:round;"/>
        </g>
        <g id="ellipse4" transform="matrix(0.707107,-0.707107,0.707107,0.707107,-36.1496,-335.426)">
            <path d="M-169.375,353.395C-169.375,368.528 -175.237,381.427 -182.954,383.275C-190.672,385.123 -197.966,375.374 -199.851,360.692" style="fill:none;fill-rule:nonzero;stroke:rgb(175,198,233);stroke-width:3.78px;stroke-linejoin:round;"/>
        </g>
        <g id="path4" transform="matrix(0.707107,-0.707107,0.707107,0.707107,-36.1496,-335.426)">
            <path d="M-189.355,332.603C-185.615,329.074 -181.225,330.218 -178.017,335.557" style="fill:none;fill-rule:nonzero;stroke:white;stroke-width:3.78px;stroke-linejoin:round;"/>
        </g>
    </g>
    <g id="g1916" transform="matrix(0.521394,0.575989,-0.575989,0.521394,304.714,-246.15)">
        <path id="path28614" d="M70.03,443.152L100.928,425.325L131.832,443.179" style="fill:none;fill-rule:nonzero;stroke:rgb(128,128,128);stroke-width:11.34px;stroke-linecap:butt;"/>
        <circle id="path28264" cx="100.939" cy="425.325" r="15.163" style="fill:rgb(212,0,0);stroke:rgb(128,0,0);stroke-width:5px;"/>
        <circle id="path28264-3" cx="131.832" cy="443.179" r="10.406" style="fill:white;stroke:rgb(77,77,77);stroke-width:5px;"/>
        <circle id="circle28579" cx="70.03" cy="443.152" r="10.406" style="fill:white;stroke:rgb(77,77,77);stroke-width:5px;"/>
    </g>
</svg>
